<svg width="206" height="161" viewBox="0 0 206 161" fill="none" xmlns="http://www.w3.org/2000/svg">
<path fill-rule="evenodd" clip-rule="evenodd" d="M59.3 44.8C60 47.5 58.4 50.2 55.7 50.9C53 51.6 50.3 50 49.6 47.3L39.6 10H5C2.2 10 0 7.8 0 5C0 2.2 2.2 0 5 0H43.4C45.6 0 47.6 1.50001 48.2 3.70001L59.3 44.8Z" fill="#214061"/>
<path fill-rule="evenodd" clip-rule="evenodd" d="M96.4 114C88.2 106.6 76.2 105 66.3 110L67.7 115.4C61.7 117.9 57.6 123.7 57.6 130.4C57.6 139.4 64.9 146.7 73.8 146.7C77.6 146.7 83.7 146.7 88.5 146.6C89.4 154.3 96 160.2 103.9 160.2C111.8 160.2 118.4 154.2 119.3 146.4C123.9 146.4 128.5 146.4 133.1 146.4C133.9 154.2 140.5 160.2 148.5 160.2C156.5 160.2 163.1 154.1 163.9 146.3C168.7 146.3 174.7 146.3 178.5 146.3C181.3 146.3 183.5 144 183.5 141.3C183.5 138.5 181.2 136.3 178.5 136.3C173.9 136.3 166.9 136.3 161.5 136.4C155.3 127 141.5 127.1 135.5 136.5L117.1 136.6C111 126.9 96.8 127 90.8 136.7C85.3 136.7 78.4 136.7 73.9 136.8C70.5 136.8 67.7 134 67.7 130.6C67.7 127.2 70.5 124.4 73.9 124.4H94.7C95.1 120.7 95.7 117.3 96.4 114ZM152.4 140.8C154.5 142.9 154.5 146.4 152.4 148.5C149 151.9 143.1 149.5 143.1 144.7C143.1 139.9 149 137.4 152.4 140.8ZM107.8 140.8C109.9 142.9 109.9 146.4 107.8 148.5C104.4 151.9 98.5 149.5 98.5 144.7C98.5 139.9 104.4 137.4 107.8 140.8Z" fill="#3A3A3A"/>
<path fill-rule="evenodd" clip-rule="evenodd" d="M119.1 83.8C108.6 94.3 101.6 108.4 100.1 124.1H113.9C115.4 112.2 120.8 101.6 128.8 93.5C138.3 84 151.4 78.2 165.8 78.2C175.7 78.2 184.9 80.9 192.8 85.7L196.5 72C187.3 67.2 176.9 64.5 165.9 64.5C147.5 64.5 131 71.9 119.1 83.8Z" fill="#3A3A3A"/>
<path fill-rule="evenodd" clip-rule="evenodd" d="M132.9 97.7C125.9 104.7 121.1 113.9 119.7 124.2H133C134.3 117.6 137.6 111.6 142.2 107C148.2 101 156.6 97.2 165.8 97.2C174.1 97.2 181.7 100.2 187.5 105.2L191.1 91.6C183.8 86.8 175.1 84.1 165.7 84.1C153 84.1 141.3 89.3 132.9 97.7Z" fill="#3A3A3A"/>
<path fill-rule="evenodd" clip-rule="evenodd" d="M146.8 111.5C143.4 114.9 140.9 119.3 139.7 124.1H178.7C180.9 124.1 182.9 122.6 183.5 120.4L185.7 112.4C185.4 112.1 185.2 111.8 184.9 111.6C180 106.7 173.3 103.7 165.9 103.7C158.4 103.6 151.6 106.7 146.8 111.5Z" fill="#3A3A3A"/>
<path fill-rule="evenodd" clip-rule="evenodd" d="M98.4 107.2C99.9 103 101.7 98.9 103.9 95.1C96.6 90.3 87.8 87.5 78.4 87.5C72.3 87.5 66.5 88.7 61.2 90.8L64.6 103.6C68.8 101.7 73.5 100.6 78.4 100.6C85.9 100.6 92.8 103.1 98.4 107.2Z" fill="#3A3A3A"/>
<path fill-rule="evenodd" clip-rule="evenodd" d="M78.4 81.7C89 81.7 98.8 84.8 107 90.2C109.5 86.6 112.3 83.3 115.3 80.2C115.5 80 115.7 79.8 115.9 79.6C105.2 72.2 92.3 67.9 78.4 67.9C70.6 67.9 63 69.3 56.1 71.8L59.7 85.1C65.5 82.9 71.8 81.7 78.4 81.7Z" fill="#3A3A3A"/>
<path fill-rule="evenodd" clip-rule="evenodd" d="M56.1 33L48.3 3.80002C47.7 1.60002 45.7 0.100006 43.5 0.100006H5.10001C2.30001 0.100006 0.100006 2.30001 0.100006 5.10001C0.100006 7.90001 2.30001 10.1 5.10001 10.1H39.7L54.9 66.7C58 65.6 61.3 64.7 64.6 64L59 42.9H194L188.7 62.8C191.9 63.9 195 65.2 198 66.7L205.3 39.4C206.3 35.9 203.8 32.8 200.5 32.8H56.1V33Z" fill="#3A3A3A"/>
</svg>
